<svg xmlns="http://www.w3.org/2000/svg" viewBox="0 0 200.06 143.88"><defs><style>.cls-1{fill:#fff;}.cls-2{fill:#231f20;}.cls-3{fill:#e8d8d9;}.cls-4{fill:#e6e7e8;}</style></defs><g id="Layer_2" data-name="Layer 2"><g id="Layer_2-2" data-name="Layer 2"><rect class="cls-1" x="1" y="12.05" width="182.67" height="130.83" rx="15.56"/><path class="cls-2" d="M168.11,143.88H16.56A16.58,16.58,0,0,1,0,127.32V27.61A16.58,16.58,0,0,1,16.56,11.05H168.11a16.58,16.58,0,0,1,16.56,16.56v99.71A16.58,16.58,0,0,1,168.11,143.88ZM16.56,13.05A14.57,14.57,0,0,0,2,27.61v99.71a14.57,14.57,0,0,0,14.56,14.56H168.11a14.57,14.57,0,0,0,14.56-14.56V27.61a14.57,14.57,0,0,0-14.56-14.56Z"/><rect class="cls-2" x="64.67" y="12.05" width="2" height="54.62"/><rect class="cls-2" x="61.72" y="57.41" width="21.22" height="2" transform="matrix(0.63, -0.78, 0.78, 0.63, -18.55, 78.03)"/><rect class="cls-2" x="84.71" y="47.77" width="2" height="21.28" transform="translate(-17.64 67.12) rotate(-39.09)"/><rect class="cls-2" x="118" y="12.05" width="2" height="54.62"/><rect class="cls-2" x="111.33" y="47.8" width="2" height="21.22" transform="translate(-11.76 83.54) rotate(-38.92)"/><rect class="cls-2" x="88.32" y="57.41" width="21.28" height="2" transform="translate(-8.78 98.38) rotate(-50.9)"/><polyline class="cls-3" points="91.75 51.3 82.28 41.6 72.86 51.3 72.86 19.21 110.52 19.21 110.52 51.3 101.11 41.6 91.63 51.3"/><path class="cls-4" d="M6,136H178.71a1.1,1.1,0,0,1,1.1,1.1v0a4,4,0,0,1-4,4H8.84a4,4,0,0,1-4-4v0A1.1,1.1,0,0,1,6,136Z"/><path class="cls-2" d="M168.11,143.88H16.56A16.58,16.58,0,0,1,0,127.32V27.61A16.58,16.58,0,0,1,16.56,11.05H168.11a16.58,16.58,0,0,1,16.56,16.56v99.71A16.58,16.58,0,0,1,168.11,143.88ZM16.56,13.05A14.57,14.57,0,0,0,2,27.61v99.71a14.57,14.57,0,0,0,14.56,14.56H168.11a14.57,14.57,0,0,0,14.56-14.56V27.61a14.57,14.57,0,0,0-14.56-14.56Z"/><path class="cls-2" d="M45.43,130.54H13.9a4.91,4.91,0,0,1-4.9-4.9V107.09a4.91,4.91,0,0,1,4.9-4.91H45.43a4.91,4.91,0,0,1,4.9,4.91v18.55A4.91,4.91,0,0,1,45.43,130.54ZM13.9,104.18a2.91,2.91,0,0,0-2.9,2.91v18.55a2.9,2.9,0,0,0,2.9,2.9H45.43a2.9,2.9,0,0,0,2.9-2.9V107.09a2.91,2.91,0,0,0-2.9-2.91Z"/><rect class="cls-3" x="15.28" y="108.65" width="28.78" height="15.35" rx="2.55"/><ellipse class="cls-1" cx="178.89" cy="20.21" rx="20.3" ry="19.34"/><path class="cls-2" d="M178.89,40.42c-11.68,0-21.18-9.06-21.18-20.21S167.21,0,178.89,0s21.17,9.07,21.17,20.21S190.56,40.42,178.89,40.42Zm0-38.68c-10.72,0-19.44,8.29-19.44,18.47s8.72,18.47,19.44,18.47,19.43-8.28,19.43-18.47S189.6,1.74,178.89,1.74Z"/><rect class="cls-2" x="172.68" y="19.02" width="19.16" height="1.74" transform="translate(38.96 134.25) rotate(-44.82)"/><rect class="cls-2" x="171.49" y="18.79" width="1.74" height="10.06" transform="translate(36.23 132.19) rotate(-46.39)"/></g></g></svg>